<svg width="128" height="128" viewBox="0 0 128 128" xmlns="http://www.w3.org/2000/svg">
  <defs>
    <linearGradient id="gradient" x1="0%" y1="0%" x2="100%" y2="100%">
      <stop offset="0%" style="stop-color:#007bff;stop-opacity:1" />
      <stop offset="100%" style="stop-color:#0056b3;stop-opacity:1" />
    </linearGradient>
  </defs>
  
  <!-- Background Circle -->
  <circle cx="64" cy="64" r="60" fill="url(#gradient)" stroke="#004085" stroke-width="2"/>
  
  <!-- Letter A -->
  <path d="M 40 85 L 50 60 L 64 60 L 78 60 L 88 85 L 82 85 L 78 75 L 50 75 L 46 85 Z M 54 68 L 74 68 L 64 45 Z" fill="white" stroke="#f8f9fa" stroke-width="1"/>
  
  <!-- Letter D -->
  <path d="M 42 100 L 42 110 L 55 110 Q 70 110 75 105 Q 80 100 80 95 Q 80 90 75 85 Q 70 80 55 80 L 42 80 Z M 48 86 L 55 86 Q 65 86 68 90 Q 71 94 71 95 Q 71 96 68 100 Q 65 104 55 104 L 48 104 Z" fill="white" stroke="#f8f9fa" stroke-width="1"/>
  
  <!-- Highlight effect -->
  <circle cx="64" cy="64" r="50" fill="none" stroke="rgba(255,255,255,0.3)" stroke-width="1"/>
</svg>